<?xml version="1.0" encoding="UTF-8" standalone="no"?>
<!DOCTYPE svg PUBLIC "-//W3C//DTD SVG 1.1//EN"
 "http://www.w3.org/Graphics/SVG/1.1/DTD/svg11.dtd">
<!-- Generated by graphviz version 13.1.2 (20250808.2320)
 -->
<!-- Title: flow Pages: 1 -->
<svg width="650pt" height="106pt"
 viewBox="6.00 6.00 644.00 100.00" xmlns="http://www.w3.org/2000/svg" xmlns:xlink="http://www.w3.org/1999/xlink">
<g id="graph0" class="graph" transform="scale(0.801822 0.801822) rotate(0) translate(10.86 120.86)">
<title>flow</title>
<polygon fill="white" stroke="none" points="-4,4 -4,-114 792.45,-114 792.45,4 -4,4"/>
<!-- n0 -->
<g id="node1" class="node">
<title>n0</title>
<path fill="none" stroke="black" d="M110.4,-74.8C110.4,-74.8 12,-74.8 12,-74.8 6,-74.8 0,-68.8 0,-62.8 0,-62.8 0,-47.2 0,-47.2 0,-41.2 6,-35.2 12,-35.2 12,-35.2 110.4,-35.2 110.4,-35.2 116.4,-35.2 122.4,-41.2 122.4,-47.2 122.4,-47.2 122.4,-62.8 122.4,-62.8 122.4,-68.8 116.4,-74.8 110.4,-74.8"/>
<text xml:space="preserve" text-anchor="middle" x="61.2" y="-57.5" font-family="Arial" font-size="10.00">HTTP POST</text>
<text xml:space="preserve" text-anchor="middle" x="61.2" y="-45.5" font-family="Arial" font-size="10.00">AGAT/Order</text>
</g>
<!-- n1 -->
<g id="node2" class="node">
<title>n1</title>
<path fill="none" stroke="black" d="M354.3,-74.8C354.3,-74.8 255.9,-74.8 255.9,-74.8 249.9,-74.8 243.9,-68.8 243.9,-62.8 243.9,-62.8 243.9,-47.2 243.9,-47.2 243.9,-41.2 249.9,-35.2 255.9,-35.2 255.9,-35.2 354.3,-35.2 354.3,-35.2 360.3,-35.2 366.3,-41.2 366.3,-47.2 366.3,-47.2 366.3,-62.8 366.3,-62.8 366.3,-68.8 360.3,-74.8 354.3,-74.8"/>
<text xml:space="preserve" text-anchor="middle" x="305.1" y="-51.5" font-family="Arial" font-size="10.00">Parse XML</text>
</g>
<!-- n0&#45;&gt;n1 -->
<g id="edge1" class="edge">
<title>n0&#45;&gt;n1</title>
<path fill="none" stroke="black" d="M122.62,-55C157.11,-55 200.45,-55 236.12,-55"/>
<polygon fill="black" stroke="black" points="236.1,-57.1 242.1,-55 236.1,-52.9 236.1,-57.1"/>
<text xml:space="preserve" text-anchor="middle" x="183.15" y="-58.2" font-family="Times New Roman,serif" font-size="14.00">application/xml</text>
</g>
<!-- n2 -->
<g id="node3" class="node">
<title>n2</title>
<path fill="none" stroke="black" d="M513.7,-74.8C513.7,-74.8 415.3,-74.8 415.3,-74.8 409.3,-74.8 403.3,-68.8 403.3,-62.8 403.3,-62.8 403.3,-47.2 403.3,-47.2 403.3,-41.2 409.3,-35.2 415.3,-35.2 415.3,-35.2 513.7,-35.2 513.7,-35.2 519.7,-35.2 525.7,-41.2 525.7,-47.2 525.7,-47.2 525.7,-62.8 525.7,-62.8 525.7,-68.8 519.7,-74.8 513.7,-74.8"/>
<text xml:space="preserve" text-anchor="middle" x="464.5" y="-57.5" font-family="Arial" font-size="10.00">Map Fields</text>
<text xml:space="preserve" text-anchor="middle" x="464.5" y="-45.5" font-family="Arial" font-size="10.00">(89 pairs)</text>
</g>
<!-- n1&#45;&gt;n2 -->
<g id="edge2" class="edge">
<title>n1&#45;&gt;n2</title>
<path fill="none" stroke="black" d="M366.5,-55C376.04,-55 385.95,-55 395.64,-55"/>
<polygon fill="black" stroke="black" points="395.48,-57.1 401.48,-55 395.48,-52.9 395.48,-57.1"/>
</g>
<!-- n3 -->
<g id="node4" class="node">
<title>n3</title>
<path fill="none" stroke="black" d="M776.45,-110C776.45,-110 617.2,-110 617.2,-110 611.2,-110 605.2,-104 605.2,-98 605.2,-98 605.2,-78 605.2,-78 605.2,-72 611.2,-66 617.2,-66 617.2,-66 776.45,-66 776.45,-66 782.45,-66 788.45,-72 788.45,-78 788.45,-78 788.45,-98 788.45,-98 788.45,-104 782.45,-110 776.45,-110"/>
<text xml:space="preserve" text-anchor="middle" x="696.83" y="-96.5" font-family="Arial" font-size="10.00">Forward → 02_​PL_​AGAT_​RHD_​Order</text>
<text xml:space="preserve" text-anchor="middle" x="696.83" y="-84.5" font-family="Arial" font-size="10.00">Interface_​StatusRespons</text>
<text xml:space="preserve" text-anchor="middle" x="696.83" y="-72.5" font-family="Arial" font-size="10.00">e_​RHDPoland</text>
</g>
<!-- n2&#45;&gt;n3 -->
<g id="edge3" class="edge">
<title>n2&#45;&gt;n3</title>
<path fill="none" stroke="black" d="M526.02,-63.67C547.97,-66.82 573.38,-70.46 597.74,-73.95"/>
<polygon fill="black" stroke="black" points="597.19,-75.99 603.43,-74.76 597.78,-71.83 597.19,-75.99"/>
</g>
<!-- nE -->
<g id="node5" class="node">
<title>nE</title>
<path fill="none" stroke="#b91c1c" d="M769.33,-44C769.33,-44 624.33,-44 624.33,-44 618.33,-44 612.33,-38 612.33,-32 612.33,-32 612.33,-12 612.33,-12 612.33,-6 618.33,0 624.33,0 624.33,0 769.33,0 769.33,0 775.33,0 781.33,-6 781.33,-12 781.33,-12 781.33,-32 781.33,-32 781.33,-38 775.33,-44 769.33,-44"/>
<text xml:space="preserve" text-anchor="middle" x="696.83" y="-30.5" font-family="Arial" font-size="10.00" fill="#b91c1c">Error → 02_​PL_​AGAT_​RHD_​Order</text>
<text xml:space="preserve" text-anchor="middle" x="696.83" y="-18.5" font-family="Arial" font-size="10.00" fill="#b91c1c">Interface_​StatusRespons</text>
<text xml:space="preserve" text-anchor="middle" x="696.83" y="-6.5" font-family="Arial" font-size="10.00" fill="#b91c1c">e_​RHDPoland</text>
</g>
<!-- n2&#45;&gt;nE -->
<g id="edge4" class="edge">
<title>n2&#45;&gt;nE</title>
<path fill="none" stroke="#b91c1c" stroke-dasharray="5,2" d="M526.02,-46.33C550.02,-42.89 578.14,-38.86 604.52,-35.08"/>
<polygon fill="#b91c1c" stroke="#b91c1c" points="604.76,-37.17 610.41,-34.24 604.17,-33.01 604.76,-37.17"/>
<text xml:space="preserve" text-anchor="middle" x="565.45" y="-46.58" font-family="Times New Roman,serif" font-size="14.00">on error</text>
</g>
</g>
</svg>
