<?xml version="1.0" encoding="UTF-8" standalone="no"?>
<!DOCTYPE svg PUBLIC "-//W3C//DTD SVG 1.1//EN"
 "http://www.w3.org/Graphics/SVG/1.1/DTD/svg11.dtd">
<!-- Generated by graphviz version 13.1.2 (20250808.2320)
 -->
<!-- Title: flow Pages: 1 -->
<svg width="789pt" height="156pt"
 viewBox="4.00 4.00 785.00 151.00" xmlns="http://www.w3.org/2000/svg" xmlns:xlink="http://www.w3.org/1999/xlink">
<g id="graph0" class="graph" transform="scale(1.26734 1.26734) rotate(0) translate(6.35 116.35)">
<title>flow</title>
<polygon fill="white" stroke="none" points="-2.88,2.88 -2.88,-112.88 613.13,-112.88 613.13,2.88 -2.88,2.88"/>
<!-- n0 -->
<g id="node1" class="node">
<title>n0</title>
<path fill="none" stroke="black" d="M60.25,-73C60.25,-73 12,-73 12,-73 6,-73 0,-67 0,-61 0,-61 0,-49 0,-49 0,-43 6,-37 12,-37 12,-37 60.25,-37 60.25,-37 66.25,-37 72.25,-43 72.25,-49 72.25,-49 72.25,-61 72.25,-61 72.25,-67 66.25,-73 60.25,-73"/>
<text xml:space="preserve" text-anchor="middle" x="36.12" y="-57.5" font-family="Arial" font-size="10.00">HTTP POST</text>
<text xml:space="preserve" text-anchor="middle" x="36.12" y="-45.5" font-family="Arial" font-size="10.00">AGAT/Order</text>
</g>
<!-- n1 -->
<g id="node2" class="node">
<title>n1</title>
<path fill="none" stroke="black" d="M242.5,-73C242.5,-73 201.75,-73 201.75,-73 195.75,-73 189.75,-67 189.75,-61 189.75,-61 189.75,-49 189.75,-49 189.75,-43 195.75,-37 201.75,-37 201.75,-37 242.5,-37 242.5,-37 248.5,-37 254.5,-43 254.5,-49 254.5,-49 254.5,-61 254.5,-61 254.5,-67 248.5,-73 242.5,-73"/>
<text xml:space="preserve" text-anchor="middle" x="222.12" y="-51.5" font-family="Arial" font-size="10.00">Parse XML</text>
</g>
<!-- n0&#45;&gt;n1 -->
<g id="edge1" class="edge">
<title>n0&#45;&gt;n1</title>
<path fill="none" stroke="black" d="M72.6,-55C104.06,-55 149.91,-55 182.33,-55"/>
<polygon fill="black" stroke="black" points="181.93,-57.1 187.93,-55 181.93,-52.9 181.93,-57.1"/>
<text xml:space="preserve" text-anchor="middle" x="131" y="-58.2" font-family="Times New Roman,serif" font-size="14.00">application/xml</text>
</g>
<!-- n2 -->
<g id="node3" class="node">
<title>n2</title>
<path fill="none" stroke="black" d="M339.5,-73C339.5,-73 299.5,-73 299.5,-73 293.5,-73 287.5,-67 287.5,-61 287.5,-61 287.5,-49 287.5,-49 287.5,-43 293.5,-37 299.5,-37 299.5,-37 339.5,-37 339.5,-37 345.5,-37 351.5,-43 351.5,-49 351.5,-49 351.5,-61 351.5,-61 351.5,-67 345.5,-73 339.5,-73"/>
<text xml:space="preserve" text-anchor="middle" x="319.5" y="-57.5" font-family="Arial" font-size="10.00">Map Fields</text>
<text xml:space="preserve" text-anchor="middle" x="319.5" y="-45.5" font-family="Arial" font-size="10.00">(89 pairs)</text>
</g>
<!-- n1&#45;&gt;n2 -->
<g id="edge2" class="edge">
<title>n1&#45;&gt;n2</title>
<path fill="none" stroke="black" d="M254.88,-55C262.85,-55 271.48,-55 279.75,-55"/>
<polygon fill="black" stroke="black" points="279.69,-57.1 285.69,-55 279.69,-52.9 279.69,-57.1"/>
</g>
<!-- n3 -->
<g id="node4" class="node">
<title>n3</title>
<path fill="none" stroke="black" d="M598.25,-110C598.25,-110 439,-110 439,-110 433,-110 427,-104 427,-98 427,-98 427,-78 427,-78 427,-72 433,-66 439,-66 439,-66 598.25,-66 598.25,-66 604.25,-66 610.25,-72 610.25,-78 610.25,-78 610.25,-98 610.25,-98 610.25,-104 604.25,-110 598.25,-110"/>
<text xml:space="preserve" text-anchor="middle" x="518.62" y="-96.5" font-family="Arial" font-size="10.00">Forward → 02_​PL_​AGAT_​RHD_​Order</text>
<text xml:space="preserve" text-anchor="middle" x="518.62" y="-84.5" font-family="Arial" font-size="10.00">Interface_​StatusRespons</text>
<text xml:space="preserve" text-anchor="middle" x="518.62" y="-72.5" font-family="Arial" font-size="10.00">e_​RHDPoland</text>
</g>
<!-- n2&#45;&gt;n3 -->
<g id="edge3" class="edge">
<title>n2&#45;&gt;n3</title>
<path fill="none" stroke="black" d="M351.74,-60.23C370.31,-63.34 395,-67.47 419.64,-71.6"/>
<polygon fill="black" stroke="black" points="419.17,-73.65 425.44,-72.57 419.86,-69.5 419.17,-73.65"/>
</g>
<!-- nE -->
<g id="node5" class="node">
<title>nE</title>
<path fill="none" stroke="#b91c1c" d="M591.12,-44C591.12,-44 446.12,-44 446.12,-44 440.12,-44 434.12,-38 434.12,-32 434.12,-32 434.12,-12 434.12,-12 434.12,-6 440.12,0 446.12,0 446.12,0 591.12,0 591.12,0 597.12,0 603.12,-6 603.12,-12 603.12,-12 603.12,-32 603.12,-32 603.12,-38 597.12,-44 591.12,-44"/>
<text xml:space="preserve" text-anchor="middle" x="518.62" y="-30.5" font-family="Arial" font-size="10.00" fill="#b91c1c">Error → 02_​PL_​AGAT_​RHD_​Order</text>
<text xml:space="preserve" text-anchor="middle" x="518.62" y="-18.5" font-family="Arial" font-size="10.00" fill="#b91c1c">Interface_​StatusRespons</text>
<text xml:space="preserve" text-anchor="middle" x="518.62" y="-6.5" font-family="Arial" font-size="10.00" fill="#b91c1c">e_​RHDPoland</text>
</g>
<!-- n2&#45;&gt;nE -->
<g id="edge4" class="edge">
<title>n2&#45;&gt;nE</title>
<path fill="none" stroke="#b91c1c" stroke-dasharray="5,2" d="M351.94,-45.26C357.11,-43.87 362.43,-42.55 367.5,-41.5 386.44,-37.57 406.9,-34.29 426.44,-31.61"/>
<polygon fill="#b91c1c" stroke="#b91c1c" points="426.71,-33.69 432.37,-30.81 426.15,-29.53 426.71,-33.69"/>
<text xml:space="preserve" text-anchor="middle" x="389.25" y="-44.7" font-family="Times New Roman,serif" font-size="14.00">on error</text>
</g>
</g>
</svg>
